<svg version="1.1" xmlns="http://www.w3.org/2000/svg" width="26px" height="21px" viewBox="0 0 26 21">
  <g stroke="none" stroke-width="1" fill="none" fill-rule="evenodd">
    <g transform="translate(-727.000000, -412.000000)" stroke="#FFFFFF" stroke-width="1.73333333">
      <g transform="translate(360.000000, 152.000000)">
        <g transform="translate(339.000000, 240.000000)">
          <g transform="translate(28.000000, 20.000000)">
            <path d="M2.6,1.74166667 C1.64270643,1.74166667 0.866666667,2.51770643 0.866666667,3.475 L0.866666667,17.525 C0.866666667,18.4822936 1.64270643,19.2583333 2.6,19.2583333 L17.3333333,19.2583333 C18.2906269,19.2583333 19.0666667,18.4822936 19.0666667,17.525 L19.0666667,3.475 C19.0666667,2.51770643 18.2906269,1.74166667 17.3333333,1.74166667 L2.6,1.74166667 Z"></path>
            <path d="M5.63333333,6.5625 L9.22483724,6.5625" opacity="0.6" stroke-linecap="round" stroke-linejoin="round"></path>
            <path d="M19.3930265,6.0219292 L19.3930265,14.9780708 L23.8850503,17.2237485 C24.0038938,17.2831615 24.1344396,17.3140059 24.2666667,17.3140059 C24.7434471,17.3140059 25.1333333,16.9203708 25.1333333,16.4306726 L25.1333333,4.56932742 C25.1333333,4.43217596 25.1019947,4.29697582 25.0418797,4.17440429 C24.8284903,3.73931398 24.3114789,3.56306888 23.8850503,3.77625149 L19.3930265,6.0219292 Z"></path>
          </g>
        </g>
      </g>
    </g>
  </g>
</svg>