<?xml version="1.0" standalone="no"?><!DOCTYPE svg PUBLIC "-//W3C//DTD SVG 1.1//EN" "http://www.w3.org/Graphics/SVG/1.1/DTD/svg11.dtd"><svg t="1606731548992" class="icon" viewBox="0 0 1890 1024" version="1.1" xmlns="http://www.w3.org/2000/svg" p-id="7872" xmlns:xlink="http://www.w3.org/1999/xlink" width="369.140625" height="200"><defs><style type="text/css"></style></defs><path d="M1788.061538 157.538462c-7.876923-11.815385-19.692308-19.692308-27.56923-31.507693-31.507692-27.569231-63.015385-55.138462-102.4-74.830769C1599.015385 19.692308 1524.184615 0 1449.353846 0H441.107692c-15.753846 0-31.507692 0-43.323077 3.938462-15.753846 0-27.569231 3.938462-43.323077 7.876923-86.646154 15.753846-161.476923 59.076923-224.492307 118.153846C51.2 204.8 0 315.076923 0 433.230769s51.2 228.430769 129.969231 307.2c19.692308 19.692308 43.323077 39.384615 66.953846 55.138462L98.461538 1024l334.769231-153.6h1016.123077c31.507692 0 59.076923-3.938462 90.584616-7.876923 200.861538-39.384615 350.523077-216.615385 350.523076-425.353846 0-106.338462-39.384615-204.8-102.4-279.630769z" fill="#F3241B" p-id="7873"></path><path d="M366.276923 236.307692v393.846154h59.076923V334.769231h3.938462L630.153846 630.153846h59.076923V236.307692H630.153846v291.446154h-3.938461L425.353846 236.307692H366.276923z m401.723077 0v393.846154h291.446154v-51.2H827.076923v-126.030769h208.738462v-51.2H827.076923V287.507692h224.492308V236.307692h-283.569231z m315.076923 0l114.215385 393.846154H1260.307692l78.769231-303.261538h3.938462l78.76923 303.261538h63.015385l114.215385-393.846154h-66.953847L1457.230769 543.507692h-3.938461l-78.769231-307.2h-63.015385l-78.76923 307.2h-3.938462l-78.769231-307.2h-66.953846z" fill="#FFFFFF" p-id="7874"></path></svg>