<svg t="1608545155702" viewBox="0 0 1024 1024" version="1.1" xmlns="http://www.w3.org/2000/svg" p-id="18084" width="14"
  height="14">
  <path
    d="M994.05588 338.511011a23.336848 23.336848 0 0 0-2.559801-6.826135 84.046785 84.046785 0 0 1-5.972868-14.846843l-0.853267-0.51196a175.815634 175.815634 0 0 0-14.505536-29.693686 167.965579 167.965579 0 0 0-146.761898-78.628541 162.589998 162.589998 0 0 0-139.978427 69.541249l-5.119601 8.532668-169.800103 359.779967-166.387036-359.225343a49.916111 49.916111 0 0 0-66.554814-23.976799c-24.915392 11.732419-35.879871 41.084799-24.787402 66.213508l174.919704 375.736057v0.51196a101.197448 101.197448 0 0 0 86.179952 63.909687 94.9686 94.9686 0 0 0 80.207084-66.128181L767.086898 332.794123a57.168879 57.168879 0 0 1 56.315612-25.598005h0.853267a70.693158 70.693158 0 0 1 59.728679 26.792579 10.537846 10.537846 0 0 0 3.413068 4.522314c2.30382 4.436988 4.266334 9.044629 5.972868 13.737596 2.559801 5.716888 5.119601 12.543023 8.532668 19.369158a450.95153 450.95153 0 0 1 23.038205 139.082496c1.962514 225.774408-179.527345 410.336028-405.38708 412.255879h-5.887542a391.606821 391.606821 0 0 1-291.859925-120.310626 383.756766 383.756766 0 0 1-122.01716-290.793342 396.470442 396.470442 0 0 1 120.310626-293.011837 380.983648 380.983648 0 0 1 233.795117-115.745648c37.202435-3.413067 74.660849-3.413067 111.777957 0 34.599971 4.522314 68.645318 12.500359 101.581418 23.891472 12.500359 4.607641 26.365946 4.010354 38.397009-1.706534a48.209577 48.209577 0 0 0 25.598005-27.901826v-3.242414a47.569627 47.569627 0 0 0-1.706534-35.922534 50.172091 50.172091 0 0 0-28.157806-25.598006A589.010106 589.010106 0 0 0 571.688789 3.006486a682.61348 682.61348 0 0 0-127.990027 0 481.96778 481.96778 0 0 0-294.419727 145.951294c-198.981829 200.77369-198.981829 524.289816 0 725.063506a495.022763 495.022763 0 0 0 362.638411 149.876322c281.492734 1.2799 510.68021-225.689082 512.045437-507.011162v-4.778294a569.854266 569.854266 0 0 0-29.86434-173.341161v-0.25598z"
    fill="#dbdbdb" p-id="18085"></path>
</svg>
