<svg xmlns="http://www.w3.org/2000/svg" viewBox="0 0 20.42 17">
  <defs>
    <style>.cls-1{fill:none;stroke:#fff;stroke-linecap:round;stroke-linejoin:round;stroke-width:2px;}</style>
  </defs>
  <g>
    <path fill="#fff" d="M12.39,1.43h0M10.28,2.89c0,1.77,0,5.06,0,11.23L5.09,10.86A2,2,0,0,0,4,10.53H2.29V6.47H4a2,2,0,0,0,1.06-.31l5.21-3.28M11.37,0c-.51,0-.4.07-.56.18S8.44,1.69,4,4.47H1.21a.91.91,0,0,0-.92.89v6.27a.91.91,0,0,0,.92.89H4l6.78,4.26a.94.94,0,0,0,.6.21.91.91,0,0,0,.92-.89.88.88,0,0,0,0-.12q0-14.93,0-15h0v.13s0-.06,0-.24A.91.91,0,0,0,11.37,0Z" transform="translate(-0.29)"/>
  </g>
  <path class="cls-1" d="M18.29,4a10,10,0,0,1,1.42,5,10,10,0,0,1-1.42,5" transform="translate(-0.29)"/>
  <path class="cls-1" d="M15.51,7a4,4,0,0,1,.57,2,4,4,0,0,1-.57,2" transform="translate(-0.29)"/>
</svg>